<svg xmlns="http://www.w3.org/2000/svg" viewBox="0 0 1097.19 1159.95"><defs><style>.cls-1{opacity:0.5;font-size:1051.15px;fill:#919395;font-family:BittersweetNF, Bittersweet NF;letter-spacing:0.1em;}.cls-2{fill:#96514e;}.cls-3{fill:#d0d2d3;}</style></defs><title>Asset 1</title><g id="Layer_2" data-name="Layer 2"><g id="Layer_1-2" data-name="Layer 1"><text class="cls-1" transform="translate(241.57 919.23)">&amp;</text><path class="cls-2" d="M535.28,533.8l83,.08a1.25,1.25,0,0,0,1.14-1.78l-101-218.85h0l-1.62-3.52a1.25,1.25,0,0,0-1.14-.73h-10a1.25,1.25,0,0,0-1.14.73l-36.73,79.6h0L402,532a1.25,1.25,0,0,0,1.13,1.78l12.68.07a1.25,1.25,0,0,0,1.14-.73l20.63-44.71a1.25,1.25,0,0,1,1.14-.73h73.71a1.25,1.25,0,0,1,1.14.73l20.59,44.63A1.25,1.25,0,0,0,535.28,533.8Zm-90.07-61.91,29.21-63.32a1.25,1.25,0,0,1,2.27,0l29.21,63.32a1.25,1.25,0,0,1-1.14,1.78H446.35A1.25,1.25,0,0,1,445.21,471.89Z"/><rect class="cls-2" x="634.03" y="317.09" width="77.8" height="216.27"/><polygon class="cls-2" points="386.67 514.76 281.34 514.76 279.66 318.73 201.86 319.4 203.71 534.78 269.94 534.21 386.67 534.21 386.67 514.76"/><path class="cls-2" d="M1074.46,515.16H983V398.95c69.22,1.17,69.23,5.42,69.23,5.42l11.14-25.16H983V338h91.52l14.95-19.45H940v.21h-34.8V535H983v-.38h105.42Z"/><path class="cls-2" d="M898.39,555.88a87.68,87.68,0,0,1-15.77-10.19,53.57,53.57,0,0,1-10.49-11.83,106.81,106.81,0,0,1-7.83-15c-2.57-5.68-5.14-12.15-8.76-19a91.54,91.54,0,0,0-6.41-10.5,59.71,59.71,0,0,0-9-10.14,47.19,47.19,0,0,0-6.89-5.12c25.48-8.52,58.68-28.6,58.68-75.45,0-68.52-71-79.79-85-81.35v-.23H729.1V533.35h77.8V483.6c.68.53,1.33,1.07,2,1.61a37.6,37.6,0,0,1,5.71,6.18,41.22,41.22,0,0,1,3.85,6.49,169.07,169.07,0,0,1,6.31,15.89,180.76,180.76,0,0,0,8.35,20.07,79.56,79.56,0,0,0,14.81,21,58.46,58.46,0,0,0,23,14.16,61.39,61.39,0,0,0,24.74,2.68c2-.2,4-.44,5.89-.82l2.89-.56c1-.23,1.91-.49,2.85-.74a59.16,59.16,0,0,0,11-4.11C911.14,561.94,904.45,559.12,898.39,555.88Zm-92-95.49V336.94c13.35,0,24.17,27.63,24.17,61.72S819.68,460.39,806.34,460.39Z"/><path class="cls-2" d="M89.59,381v-.84c4-.25,71.42-5.15,71.42-53.77S93.6,272.88,89.59,272.64v0H7V535.33H89.59v0c4.68-.28,102.55-7,102.55-77.15S94.26,381.29,89.59,381Zm-.19-95.29c10.94,0,19.8,18.22,19.8,40.69s-8.87,40.69-19.8,40.69Zm0,230.82V399.78c15.69,0,28.41,26.14,28.41,58.38S105.09,516.53,89.4,516.53Z"/><path class="cls-3" d="M543,526.86l83,.08a1.25,1.25,0,0,0,1.14-1.78l-101-218.85h0l-1.62-3.52a1.25,1.25,0,0,0-1.14-.73h-10a1.25,1.25,0,0,0-1.14.73l-36.73,79.6h0L409.7,525.09a1.25,1.25,0,0,0,1.13,1.78l12.68.07a1.25,1.25,0,0,0,1.14-.73l20.63-44.71a1.25,1.25,0,0,1,1.14-.73h73.71a1.25,1.25,0,0,1,1.14.73l20.59,44.63A1.25,1.25,0,0,0,543,526.86Zm-90.07-61.91,29.21-63.32a1.25,1.25,0,0,1,2.27,0l29.21,63.32a1.25,1.25,0,0,1-1.14,1.78H454.06A1.25,1.25,0,0,1,452.92,464.94Z"/><rect class="cls-3" x="641.73" y="310.14" width="77.8" height="216.27"/><polygon class="cls-3" points="394.38 507.81 289.05 507.81 287.37 311.79 209.57 312.45 211.41 527.83 277.64 527.27 394.38 527.27 394.38 507.81"/><path class="cls-3" d="M1082.17,508.22H990.72V392c69.22,1.17,69.23,5.42,69.23,5.42l11.14-25.16H990.72V331h91.52l14.95-19.45H947.72v.21h-34.8V528h77.8v-.38h105.42Z"/><path class="cls-3" d="M906.09,548.94a87.68,87.68,0,0,1-15.77-10.19,53.57,53.57,0,0,1-10.49-11.83A106.81,106.81,0,0,1,872,512c-2.57-5.68-5.14-12.15-8.76-19a91.54,91.54,0,0,0-6.41-10.5,59.71,59.71,0,0,0-9-10.14,47.19,47.19,0,0,0-6.89-5.12c25.48-8.52,58.68-28.6,58.68-75.45,0-68.52-71-79.79-85-81.35v-.23H736.8V526.41h77.8V476.66c.68.53,1.33,1.07,2,1.61a37.6,37.6,0,0,1,5.71,6.18,41.22,41.22,0,0,1,3.85,6.49,169.07,169.07,0,0,1,6.31,15.89,180.76,180.76,0,0,0,8.35,20.07,79.56,79.56,0,0,0,14.81,21,58.46,58.46,0,0,0,23,14.16,61.39,61.39,0,0,0,24.74,2.68c2-.2,4-.44,5.89-.82l2.89-.56c1-.23,1.91-.49,2.85-.74a59.16,59.16,0,0,0,11-4.11C918.85,555,912.15,552.18,906.09,548.94Zm-92-95.49V330c13.35,0,24.17,27.63,24.17,61.72S827.39,453.45,814,453.45Z"/><path class="cls-3" d="M97.29,374.06v-.84c4-.25,71.42-5.15,71.42-53.77s-67.41-53.52-71.42-53.77v0H14.72V528.39H97.29v0c4.68-.28,102.55-7,102.55-77.15S102,374.34,97.29,374.06Zm-.19-95.29c10.94,0,19.8,18.22,19.8,40.69S108,360.15,97.1,360.15Zm0,230.82V392.83c15.69,0,28.41,26.14,28.41,58.38S112.79,509.59,97.1,509.59Z"/><path class="cls-2" d="M396.38,772.71H304.94V656.5c69.22,1.17,69.23,5.42,69.23,5.42l11.14-25.16H304.94V595.52h91.52l14.95-19.45H261.93v.21h-34.8V792.55h77.8v-.38H410.36Z"/><polygon class="cls-2" points="589.33 575.17 589.33 687.13 448.5 575.17 426.98 575.17 426.98 575.17 426.98 661.47 426.98 791.43 448.4 791.43 448.4 678.5 589.33 790.54 589.33 791.43 610.75 791.43 610.75 791.43 610.75 791.43 610.75 704.16 610.75 575.17 589.33 575.17"/><polygon class="cls-2" points="790.8 575.17 790.8 687.13 649.98 575.17 628.45 575.17 628.45 575.17 628.45 661.47 628.45 791.43 649.87 791.43 649.87 678.5 790.8 790.54 790.8 791.43 812.22 791.43 812.23 791.43 812.23 791.43 812.23 704.16 812.23 575.17 790.8 575.17"/><polygon class="cls-2" points="925.59 576.17 888.19 657.24 841.27 576.17 825.8 576.17 881.11 672.59 825.8 792.44 911.49 792.44 1011.28 576.17 925.59 576.17"/><polygon class="cls-2" points="129.82 791.26 214.56 791.26 151.17 644.46 203.38 575.06 162.58 575.06 79.91 684.97 82.07 575.76 4.28 574.23 0 790.49 0.52 790.5 0 791.2 35.53 791.2 77.79 792.03 78.81 740.66 97.33 716.04 129.82 791.26"/><path class="cls-3" d="M404.09,765.77H312.64V649.56c69.22,1.17,69.23,5.42,69.23,5.42L393,629.81H312.64V588.58h91.52l14.95-19.45H269.64v.21h-34.8V785.6h77.8v-.38H418.06Z"/><polygon class="cls-3" points="597.03 568.22 597.03 680.18 456.21 568.22 434.68 568.22 434.68 568.22 434.68 654.53 434.68 784.49 456.11 784.49 456.11 671.56 597.03 783.6 597.03 784.49 618.46 784.49 618.46 784.49 618.46 784.49 618.46 697.22 618.46 568.22 597.03 568.22"/><polygon class="cls-3" points="798.51 568.22 798.51 680.18 657.68 568.22 636.15 568.22 636.15 568.22 636.15 654.53 636.15 784.49 657.58 784.49 657.58 671.56 798.51 783.6 798.51 784.49 819.93 784.49 819.93 784.49 819.93 784.49 819.93 697.22 819.93 568.22 798.51 568.22"/><polygon class="cls-3" points="933.3 569.23 895.9 650.29 848.98 569.23 833.51 569.23 888.81 665.64 833.51 785.5 919.2 785.5 1018.99 569.23 933.3 569.23"/><polygon class="cls-3" points="137.52 784.32 222.27 784.32 158.88 637.52 211.09 568.12 170.29 568.12 87.61 678.02 89.77 568.82 11.99 567.28 7.71 783.55 8.23 783.56 7.71 784.25 43.23 784.25 85.5 785.09 86.51 733.72 105.04 709.09 137.52 784.32"/></g></g></svg>