<svg xmlns="http://www.w3.org/2000/svg" viewBox="0 0 1698 17.57"><defs><style>.cls-1{opacity:0.67;}.cls-2{fill:none;stroke:#f7ea2f;stroke-miterlimit:10;stroke-width:2px;}</style></defs><title>Asset 2fonda-marquee</title><g id="Layer_2" data-name="Layer 2"><g id="Layer_1-2" data-name="Layer 1"><g class="cls-1"><polyline class="cls-2" points="457.19 1 502.16 1 529.37 16.42 573.03 16.42"/><polyline class="cls-2" points="682.7 1 727.67 1 754.88 16.42 798.54 16.42"/><polyline class="cls-2" points="569.95 1 614.92 1 642.12 16.42 685.78 16.42"/><polyline class="cls-2" points="115.84 1 160.81 1 188.02 16.42 231.68 16.42"/><polyline class="cls-2" points="0 1 44.97 1 72.18 16.42 115.84 16.42"/><polyline class="cls-2" points="341.35 1 386.32 1 413.53 16.42 457.19 16.42"/><polyline class="cls-2" points="228.59 1 273.57 1 300.77 16.42 344.44 16.42"/><polyline class="cls-2" points="1249.56 1 1204.59 1 1177.38 16.42 1133.72 16.42"/><polyline class="cls-2" points="1024.05 1 979.08 1 951.87 16.42 908.21 16.42"/><polyline class="cls-2" points="1136.81 1 1091.83 1 1064.63 16.42 1020.97 16.42"/><polyline class="cls-2" points="1586.35 1 1541.38 1 1514.17 16.42 1470.51 16.42"/><polyline class="cls-2" points="1698 1 1653.03 1 1625.82 16.42 1582.16 16.42"/><polyline class="cls-2" points="1360.84 1 1315.87 1 1288.66 16.42 1245 16.42"/><polyline class="cls-2" points="1473.59 1 1428.62 1 1401.41 16.42 1357.75 16.42"/><polyline class="cls-2" points="925.55 1 880.58 1 853.38 16.42 826.17 1 781.2 1"/></g></g></g></svg>