<svg xmlns="http://www.w3.org/2000/svg" viewBox="0 0 1696.04 508.22"><defs><style>.cls-1,.cls-2,.cls-3{fill:#cfd1d2;}.cls-1{stroke:#101a32;stroke-miterlimit:10;stroke-width:0.25px;}.cls-2{font-size:102.45px;letter-spacing:0.4em;}.cls-2,.cls-3{font-family:Gotham-Thin, Gotham Thin;}.cls-3{font-size:102.46px;letter-spacing:0.4em;}.cls-4{letter-spacing:0.31em;}</style></defs><title>Asset 4fonda-logo-w</title><g id="Layer_2" data-name="Layer 2"><g id="Layer_1-2" data-name="Layer 1"><path class="cls-1" d="M141.56,348.95l-.94-313.42a.58.58,0,0,1,.16-.36l296.48-.89a.36.36,0,0,1,.28.59l-23.06,27.5a.58.58,0,0,1-.17.13c-5.92-.21-160.11-5.59-160.1-1.28l.19,63.89a.35.35,0,0,0,.34.36c6.67.24,110.8,3.87,126.52.72a.35.35,0,0,1,.38.52c-2.91,5.51-22,42.31-18.82,54.34a.42.42,0,0,1-.64.47c-7.49-4.85-53.91-33.35-109.47-33.18-8.58,0,.15,190.72.59,200.26a.36.36,0,0,1-.36.37l-111,.33A.36.36,0,0,1,141.56,348.95Z"/><path class="cls-1" d="M548.82,19.53c-86.42.26-156.25,77.24-156,171.95s70.58,171.27,157,171,156.25-77.24,156-171.95S635.25,19.27,548.82,19.53Zm.94,310.58c-28.95.09-52.61-62.12-52.84-138.94S520,52,548.92,51.91,601.53,114,601.76,190.85,578.71,330,549.76,330.11Z"/><path class="cls-1" d="M724.8,347.55l-.95-314.14c0-15.18,23.86-12.94,46.27,5.5s207.08,162,207.08,162l-.5-166.74a6.54,6.54,0,0,1,6.68-6.56L1002,28a6.54,6.54,0,0,1,6.4,6.45l3.94,305.1s1.61,22.35-40.08.12S780.61,195.84,771.34,186.76s-10,.18-10,10.2l.46,153.32S741,362.31,724.8,347.55Z"/><path class="cls-1" d="M1192.93,28l-132.19.4c-10.37,0-15.54,2.64-15.51,13.87l.91,302.4c-.66,5.09,13,4.28,13,4.28l134.79-.41c10.37,0,147.68-22.91,147.26-161.17S1206.76,27.92,1192.93,28Zm-18.68,285c-6.73,3.76-12,2.28-12-5.2s-.35-119.88-.35-119.88l-.37-124.14s-.76-4.49,9.72-4.52,53.2,19.27,53.53,128.94S1181,309.2,1174.26,313Z"/><path class="cls-1" d="M1638.42,337l-146.15-310s-5.26-5.93-12.74-5.91a11.89,11.89,0,0,0-10.46,6L1321.79,338s-1,10.2,6.33,10.18c20.17-.06,24.91-8.35,24.91-8.35l22.6-47.11,112.89-.34c2.26,5.23,16.63,36.09,19.64,43.57s8.27,11.67,15,11.65l105.54-.32C1645.19,347.19,1638.42,337,1638.42,337Zm-247-76.52,41.73-89.54,38.95,89.3Z"/><text class="cls-2" transform="translate(88.07 327.38) rotate(-90.17)">THE</text><text class="cls-3" transform="matrix(1, 0, 0, 1, 933.79, 491.1)">THE<tspan class="cls-4" x="327.36" y="0">A</tspan><tspan x="437.71" y="0">TRE</tspan></text></g></g></svg>