<svg xmlns="http://www.w3.org/2000/svg" viewBox="0 0 1019.49 20.79"><defs><style>.cls-1{fill:none;stroke:#511413;stroke-miterlimit:10;stroke-width:5px;}</style></defs><title>Asset 7fonda-light-marquee</title><g id="Layer_2" data-name="Layer 2"><g id="Layer_1-2" data-name="Layer 1"><polyline class="cls-1" points="115.84 2.5 160.81 2.5 188.02 17.92 231.68 17.92"/><polyline class="cls-1" points="341.35 2.5 386.32 2.5 413.53 17.92 457.19 17.92"/><polyline class="cls-1" points="228.59 2.5 273.57 2.5 300.77 17.92 344.44 17.92"/><polyline class="cls-1" points="0 2.5 44.97 2.5 72.18 17.92 115.84 17.92"/><polyline class="cls-1" points="908.21 2.5 863.24 2.5 836.03 17.92 792.37 17.92"/><polyline class="cls-1" points="682.7 2.5 637.73 2.5 610.52 17.92 566.86 17.92"/><polyline class="cls-1" points="795.46 2.5 750.48 2.5 723.28 17.92 679.62 17.92"/><polyline class="cls-1" points="1019.49 2.5 974.51 2.5 947.31 17.92 903.65 17.92"/><polyline class="cls-1" points="584.2 2.5 539.23 2.5 512.02 17.92 484.82 2.5 439.85 2.5"/></g></g></svg>