<svg xmlns="http://www.w3.org/2000/svg" viewBox="0 0 1139.63 793"><defs><style>.cls-1,.cls-2,.cls-20,.cls-3{fill:none;}.cls-1,.cls-2{stroke:#f2f2f2;}.cls-1,.cls-2,.cls-3{stroke-miterlimit:10;}.cls-1{stroke-width:11px;}.cls-2,.cls-3{stroke-width:8px;}.cls-3{stroke:#fff;}.cls-12,.cls-17,.cls-4{font-size:18px;fill:#fff;font-family:Gotham-Thin, Gotham Thin;}.cls-16,.cls-4{letter-spacing:0.3em;}.cls-5{letter-spacing:0.17em;}.cls-6{letter-spacing:0.28em;}.cls-7{letter-spacing:0.27em;}.cls-12,.cls-8{letter-spacing:0.3em;}.cls-9{letter-spacing:0.19em;}.cls-10{letter-spacing:0.29em;}.cls-11{letter-spacing:0.28em;}.cls-13{letter-spacing:0.2em;}.cls-14{letter-spacing:0.3em;}.cls-15{letter-spacing:0.28em;}.cls-17{letter-spacing:0.29em;}.cls-18{letter-spacing:0.21em;}.cls-19{letter-spacing:0.26em;}.cls-21{fill:#0f1a33;}.cls-22{fill:#96514e;}.cls-23{fill:#d0d2d3;}.cls-24{opacity:0.5;font-size:62.36px;fill:#919395;font-family:BittersweetNF, Bittersweet NF;letter-spacing:0.1em;}</style></defs><title>Asset 6BK-map-t</title><g id="Layer_2" data-name="Layer 2"><g id="Layer_1-2" data-name="Layer 1"><path class="cls-1" d="M.3,34.5c313-17,243.81,77.72,330,161,89,86,158.54,127.61,215,161,46.5,27.5,123,13,159,35S764.8,485,804.8,564s70,70,90,88,31,51,78,31c51.5-15.5,138.5-40.5,161.5,51.5"/><path class="cls-2" d="M243.28,343.94h187c14,0,41-13.44,66-.44s26-3,26-3H931.8V772l-721.5-1V403.5c0-16,13-27,25-38s9-53,9-72,15-53,29-71c9.18-11.81,4.6-60.2-19.69-141.77"/><line class="cls-3" x1="616.43" y1="343.21" x2="616.43" y2="771"/><line class="cls-3" x1="546.43" y1="343.21" x2="546.43" y2="771"/><line class="cls-3" x1="930.8" y1="444" x2="210.8" y2="444"/><line class="cls-3" x1="210.8" y1="560.47" x2="930.8" y2="560.47"/><text class="cls-4" transform="translate(227.23 427.71)">HOL<tspan class="cls-5" x="55.4" y="0">L</tspan><tspan class="cls-6" x="68.98" y="0">Y</tspan><tspan class="cls-7" x="85.84" y="0">W</tspan><tspan class="cls-8" x="108.92" y="0">OOD B</tspan><tspan class="cls-9" x="198.25" y="0">L</tspan><tspan class="cls-8" x="212.09" y="0">VD</tspan></text><text class="cls-4" transform="translate(369.59 205.54) rotate(39.79)">1<tspan class="cls-10" x="11.07" y="0">0</tspan><tspan class="cls-8" x="29.07" y="0">1 F</tspan><tspan class="cls-11" x="67.21" y="0">W</tspan><tspan x="90.56" y="0">Y</tspan></text><text class="cls-12" transform="translate(621.24 327.71)">F<tspan class="cls-10" x="16.63" y="0">R</tspan><tspan x="34.88" y="0">ANKLIN </tspan><tspan class="cls-13" x="147.2" y="0">A</tspan><tspan x="164.61" y="0">VE</tspan></text><text class="cls-12" transform="translate(963.58 524.76) rotate(-90)">W<tspan class="cls-14" x="23.71" y="0">E</tspan><tspan class="cls-15" x="40.91" y="0">S</tspan><tspan x="57.6" y="0">TERN </tspan><tspan class="cls-13" x="139.09" y="0">A</tspan><tspan class="cls-16" x="156.49" y="0">VE</tspan></text><text class="cls-12" transform="translate(227.23 539.71)">SUNSET B<tspan class="cls-9" x="134.35" y="0">L</tspan><tspan x="148.19" y="0">VD</tspan></text><text class="cls-17" transform="translate(227.23 753.71)">S<tspan class="cls-8" x="16.78" y="0">AN</tspan><tspan class="cls-18" x="55.42" y="0">T</tspan><tspan class="cls-8" x="69.68" y="0">A MONICA B</tspan><tspan class="cls-9" x="236.54" y="0">L</tspan><tspan class="cls-8" x="250.38" y="0">VD</tspan></text><text class="cls-4" transform="translate(193.33 618.52) rotate(-90)">HIGHLAND B<tspan class="cls-9" x="169.87" y="0">L</tspan><tspan class="cls-8" x="183.71" y="0">VD</tspan></text><text class="cls-12" transform="translate(649.33 752.52) rotate(-90)">G<tspan class="cls-19" x="19.42" y="0">O</tspan><tspan x="39.35" y="0">WER </tspan><tspan class="cls-13" x="109.22" y="0">A</tspan><tspan x="126.63" y="0">VE</tspan></text><text class="cls-12" transform="translate(574.33 752.52) rotate(-90)">EL CENT<tspan class="cls-15" x="114.73" y="0">R</tspan><tspan class="cls-16" x="132.89" y="0">O</tspan></text><rect class="cls-20" x="52.8" width="1043" height="793"/><polygon class="cls-21" points="611.84 483.86 639.31 483.92 621.45 442.83 640.08 417.26 621.64 417.26 601.72 444.27 601.95 419.42 558.24 418.88 558.24 491.25 568.65 491.25 568.48 491.49 580.36 491.49 594.5 491.77 594.84 474.58 603.86 466.29 611.84 483.86"/><polygon class="cls-22" points="612.34 480.98 634.79 480.98 617.99 442.09 631.82 423.7 621.02 423.7 599.12 452.82 599.69 423.89 579.08 423.48 577.95 480.77 578.09 480.77 577.95 480.96 587.36 480.96 598.55 481.18 598.82 467.57 603.73 461.05 612.34 480.98"/><path class="cls-23" d="M579,447.35v-.18c.88-.05,15.67-1.13,15.67-11.8s-14.79-11.74-15.67-11.8H560.84v57.66H579c1-.06,22.51-1.53,22.51-16.93S580,447.42,579,447.35Zm0-20.91c2.4,0,4.35,4,4.35,8.93s-1.95,8.93-4.35,8.93Zm0,50.65V451.47c3.44,0,6.23,5.74,6.23,12.81S582.36,477.1,578.91,477.1Z"/><text class="cls-24" transform="translate(577.57 475.8)">&amp;</text></g></g></svg>